<svg xmlns="http://www.w3.org/2000/svg" viewBox="0 0 32 32">
  <circle cx="16" cy="16" r="16" fill="#2775CA"/>
  <path fill="#FFF" d="M16 6C10.5 6 6 10.5 6 16s4.5 10 10 10 10-4.5 10-10S21.5 6 16 6zm0 18.5c-4.7 0-8.5-3.8-8.5-8.5S11.3 7.5 16 7.5s8.5 3.8 8.5 8.5-3.8 8.5-8.5 8.5zm3.3-8.2c0-1.7-1-2.5-3-2.8v-2.8c.8.1 1.6.4 2.3.9l.7-1.2c-.9-.6-1.9-1-3-1.1V8h-1.2v1.3c-2 .2-3.2 1.4-3.2 3s1 2.5 3 2.8v2.9c-1-.1-2-.6-2.8-1.3l-.8 1.2c1 .8 2.2 1.4 3.5 1.5V21h1.2v-1.6c2-.2 3.3-1.4 3.3-3.1zm-5.4-2.6c-1.1-.2-1.5-.6-1.5-1.3s.6-1.2 1.5-1.4v2.7zm2.3 5.6v-2.8c1.1.2 1.6.7 1.6 1.4 0 .7-.5 1.2-1.6 1.4z"/>
</svg>
