<svg xmlns="http://www.w3.org/2000/svg" viewBox="0 0 32 32">
  <circle cx="16" cy="16" r="16" fill="#26A17B"/>
  <path fill="#FFF" d="M17.9 17.1v-.1c-.1 0-.7-.1-2-.1-1 0-1.7 0-2 .1v.1c-3.6.2-6.3.8-6.3 1.6s2.7 1.4 6.3 1.6v5.1h3.9v-5.1c3.6-.2 6.3-.8 6.3-1.6s-2.6-1.5-6.2-1.6zm0 2.6v-.1c-.3 0-1 .1-1.9.1-1.1 0-1.7 0-2-.1v.1c-3.2-.1-5.6-.7-5.6-1.3 0-.6 2.4-1.1 5.6-1.3v2c.3 0 1 .1 2 .1s1.6-.1 1.9-.1v-2c3.2.1 5.6.7 5.6 1.3 0 .6-2.4 1.1-5.6 1.3zM17.9 14v-2.7h5.4V7.5H8.7v3.8h5.4V14c-4 .2-7 1-7 2s3 1.8 7 2v7.2h3.9v-7.2c3.9-.2 6.9-1 6.9-2s-3-1.8-6.9-2z"/>
</svg>
